{"title":"Vikings Season 1 Ext (2013) Bluray 720p AAC x264 - aSOUL","uid":9843010,"size":10866421964,"categoryP":"video","categoryS":"hd___tv_shows","magnet":"?xt=urn:btih:69ec1c3fc51834471b9f6aed3cf55248d3377065&amp;dn=Vikings+Season+1+Ext+%282013%29+Bluray+720p+AAC+x264+-+aSOUL&amp;tr=udp%3A%2F%2Ftracker.openbittorrent.com%3A80&amp;tr=udp%3A%2F%2Fopen.demonii.com%3A1337&amp;tr=udp%3A%2F%2Ftracker.coppersurfer.tk%3A6969&amp;tr=udp%3A%2F%2Fexodus.desync.com%3A6969","seeders":2,"leechers":0,"uploader":null,"files":13,"time":1396022701,"description":"IMDB - http://www.imdb.com/title/tt2306299\n\nThanks to HDW for the source!\n\nEncoded for Mobile Device\n\nBlu-ray bonus features included\n\nTypical of all eps\n\nGeneral\nComplete name :Vikings Season 1 Ext (2013) Bluray 720Pad AAC x264 - aSOULVikings S01E03 - Dispossessed Ext (2013) Bluray 720Pad AAC x264 - aSOUL.mp4\nFormat : MPEG-4\nFormat profile : Base Media\nCodec ID : isom\nFile size : 1.02 GiB\nDuration : 46mn 50s\nOverall bit rate mode : Variable\nOverall bit rate : 3 115 Kbps\nEncoded date : UTC 2013-11-19 23:29:08\nTagged date : UTC 2013-11-19 23:29:08\nCover : Yes\n\nVideo\nID : 1\nFormat : AVC\nFormat/Info : Advanced Video Codec\nFormat profile : &lt;a class=&quot;__cf_email__&quot; href=&quot;/cdn-cgi/l/email-protection&quot; data-cfemail=&quot;ca82a3ada28a86f9e4fb&quot;&gt;[email&amp;#160;protected]&lt;/a&gt;&lt;script cf-hash='f9e31' type=&quot;text/javascript&quot;&gt;\n/* &lt;![CDATA[ */!function(){try{var t=&quot;currentScript&quot;in document?document.currentScript:function(){for(var t=document.getElementsByTagName(&quot;script&quot;),e=t.length;e--;)if(t[e].getAttribute(&quot;cf-hash&quot;))return t[e]}();if(t&amp;&amp;t.previousSibling){var e,r,n,i,c=t.previousSibling,a=c.getAttribute(&quot;data-cfemail&quot;);if(a){for(e=&quot;&quot;,r=parseInt(a.substr(0,2),16),n=2;a.length-n;n+=2)i=parseInt(a.substr(n,2),16)^r,e+=String.fromCharCode(i);e=document.createTextNode(e),c.parentNode.replaceChild(e,c)}}}catch(u){}}();/* ]]&gt; */&lt;/script&gt;\nFormat settings, CABAC : Yes\nFormat settings, ReFrames : 8 frames\nCodec ID : avc1\nCodec ID/Info : Advanced Video Coding\nDuration : 45mn 13s\nBit rate mode : Variable\nBit rate : 3 031 Kbps\nMaximum bit rate : 10 000 Kbps\nWidth : 1 280 pixels\nHeight : 720 pixels\nDisplay aspect ratio : 16:9\nFrame rate mode : Constant\nFrame rate : 23.976 fps\nColor space : YUV\nChroma subsampling : 4:2:0\nBit depth : 8 bits\nScan type : Progressive\nBits/(Pixel*Frame) : 0.137\nStream size : 980 MiB (94%)\nTitle : Vikings S01E03 - Dispossessed Ext (2013) Bluray 720Pad AAC x264 - aSOUL\nEncoded date : UTC 2013-11-19 23:29:08\nTagged date : UTC 2013-11-19 23:29:35\n\nAudio\nID : 2\nFormat : AAC\nFormat/Info : Advanced Audio Codec\nFormat profile : LC\nCodec ID : 40\nDuration : 45mn 13s\nBit rate mode : Variable\nBit rate : 192 Kbps\nMaximum bit rate : 198 Kbps\nChannel(s) : 2 channels\nChannel positions : Front: L R\nSampling rate : 48.0 KHz\nCompression mode : Lossy\nStream size : 62.1 MiB (6%)\nLanguage : English\nEncoded date : UTC 2013-11-19 23:29:15\nTagged date : UTC 2013-11-19 23:29:35\n\nText\nID : 3\nFormat : Timed Text\nCodec ID : tx3g\nDuration : 46mn 50s\nBit rate mode : Variable\nBit rate : 33 bps\nStream size : 11.3 KiB (0%)\nLanguage : English\nEncoded date : UTC 2013-11-19 23:29:35\nTagged date : UTC 2013-11-19 23:29:35","torrent":{"xt":"urn:btih:69ec1c3fc51834471b9f6aed3cf55248d3377065","amp;dn":"Vikings+Season+1+Ext+%282013%29+Bluray+720p+AAC+x264+-+aSOUL","amp;tr":["udp%3A%2F%2Ftracker.openbittorrent.com%3A80","udp%3A%2F%2Fopen.demonii.com%3A1337","udp%3A%2F%2Ftracker.coppersurfer.tk%3A6969","udp%3A%2F%2Fexodus.desync.com%3A6969"],"infoHash":"69ec1c3fc51834471b9f6aed3cf55248d3377065","infoHashBuffer":{"type":"Buffer","data":[105,236,28,63,197,24,52,71,27,159,106,237,60,245,82,72,211,55,112,101]},"announce":[],"urlList":[]}}